Coordinates
version=1
nRows=10
nColumns=46
inDegrees=yes

Units are S.I. units (second, meters, Newtons, ...)
Angles are in degrees.

endheader
time	pelvis_tilt	pelvis_list	pelvis_rotation	pelvis_tx	pelvis_ty	pelvis_tz	bb_angle	bb_tx	bb_ty	bb_tz	hip_flexion_r	hip_adduction_r	hip_rotation_r	knee_angle_r	knee_angle_r_beta	ankle_angle_r	subtalar_angle_r	mtp_angle_r	crank_angle_r	hip_flexion_l	hip_adduction_l	hip_rotation_l	knee_angle_l	knee_angle_l_beta	ankle_angle_l	subtalar_angle_l	mtp_angle_l	crank_angle_l	lumbar_extension	lumbar_bending	lumbar_rotation	arm_flex_r	arm_add_r	arm_rot_r	elbow_flex_r	pro_sup_r	wrist_flex_r	wrist_dev_r	arm_flex_l	arm_add_l	arm_rot_l	elbow_flex_l	pro_sup_l	wrist_flex_l	wrist_dev_l
      0.00500000	    -24.20089785	      6.02387151	      0.87594349	      0.13791245	      1.10170831	     -0.26905184	      0.00000000	      0.50000000	      0.00000000	      0.25000000	     49.28591976	     -7.95382999	      3.49657017	     47.26182660	      0.82487448	     12.56842174	     -7.68022641	      0.00000000	      0.00000000	     98.33812556	     -6.98075084	     -2.39255025	    103.90897214	      1.81355369	     20.19269364	     -0.41869750	      0.00000000	      0.00000000	    -40.58635909	     -2.05489520	    -10.31891482	     80.44695561	     -0.72910623	     38.98373547	     30.56538316	     43.71197266	      0.00000000	      0.00000000	     77.40198603	    -22.19104998	     42.39751218	     40.27491079	     50.41684206	      0.00000000	      0.00000000
      0.01000000	    -24.18797862	      5.94798782	      0.84484298	      0.13791846	      1.10164718	     -0.26894899	      0.00000000	      0.50000000	      0.00000000	      0.25000000	     49.20244094	     -7.85068916	      3.50847300	     47.18173540	      0.82347663	     12.63964879	     -7.70733574	      0.00000000	      0.00000000	     98.36077022	     -7.04220558	     -2.29939935	    103.93940363	      1.81408482	     20.22161401	     -0.23732528	      0.00000000	      0.00000000	    -40.52956335	     -2.00919722	    -10.34874254	     80.68789964	     -0.38945070	     39.60745067	     29.47142649	     43.59223006	      0.00000000	      0.00000000	     77.71576635	    -22.21425225	     43.10032622	     39.42530014	     50.29063477	      0.00000000	      0.00000000
      0.01500000	    -24.19767837	      5.99161134	      0.87146136	      0.13791373	      1.10167435	     -0.26905319	      0.00000000	      0.50000000	      0.00000000	      0.25000000	     49.22720045	     -7.92765801	      3.47949549	     47.19948100	      0.82378635	     12.61401383	     -7.66770779	      0.00000000	      0.00000000	     98.34852282	     -7.00705221	     -2.36997096	    103.92113056	      1.81376589	     20.18595126	     -0.36377201	      0.00000000	      0.00000000	    -40.58086272	     -2.02880399	    -10.33080096	     80.59060970	     -0.56175756	     39.07475743	     30.09943635	     43.62435542	      0.00000000	      0.00000000	     77.50015698	    -22.14653973	     42.50503175	     39.95456274	     50.13934672	      0.00000000	      0.00000000
      0.02000000	    -24.19348804	      5.92171581	      0.84700869	      0.13789380	      1.10159612	     -0.26894800	      0.00000000	      0.50000000	      0.00000000	      0.25000000	     49.23430775	     -7.80806197	      3.53377808	     47.23032994	      0.82432476	     12.69135483	     -7.73525212	      0.00000000	      0.00000000	     98.37357526	     -7.06336350	     -2.30670652	    103.93447032	      1.81399871	     20.23100098	     -0.17671592	      0.00000000	      0.00000000	    -40.60563094	     -2.01062596	    -10.35571079	     80.37116348	     -0.50404979	     38.56047383	     30.62410885	     43.64936172	      0.00000000	      0.00000000	     77.37042496	    -22.21435873	     41.79939787	     40.28498436	     49.89989463	      0.00000000	      0.00000000
      0.02500000	    -24.21562340	      5.87135621	      0.82415355	      0.13785897	      1.10151521	     -0.26889518	      0.00000000	      0.50000000	      0.00000000	      0.25000000	     49.25035362	     -7.73937386	      3.52979446	     47.22452606	      0.82422347	     12.66618189	     -7.75263969	      0.00000000	      0.00000000	     98.41871815	     -7.10266948	     -2.22107808	    103.95883988	      1.81442404	     20.31822101	      0.03259258	      0.00000000	      0.00000000	    -40.54628525	     -1.94835990	    -10.38701635	     80.49696375	     -0.26769193	     38.66071323	     30.11235317	     43.59501317	      0.00000000	      0.00000000	     77.38027684	    -22.24345057	     41.83929054	     39.96138989	     49.73151432	      0.00000000	      0.00000000
      0.03000000	    -24.19643119	      5.94990982	      0.87852388	      0.13778198	      1.10161745	     -0.26903405	      0.00000000	      0.50000000	      0.00000000	      0.25000000	     49.25062188	     -7.85273302	      3.53847463	     47.24614863	      0.82460085	     12.62544343	     -7.78560342	      0.00000000	      0.00000000	     98.36967256	     -7.02463516	     -2.33443599	    103.91063448	      1.81358270	     20.20462196	     -0.24170449	      0.00000000	      0.00000000	    -40.55356315	     -1.99289699	    -10.41882005	     80.77845084	     -0.26669196	     39.43416728	     29.26334696	     43.47422504	      0.00000000	      0.00000000	     77.62132565	    -22.24725108	     42.66134890	     39.64311223	     49.78869168	      0.00000000	      0.00000000
      0.03500000	    -24.21971655	      5.92698022	      0.85979260	      0.13776307	      1.10155456	     -0.26900020	      0.00000000	      0.50000000	      0.00000000	      0.25000000	     49.27829583	     -7.81198756	      3.55053155	     47.25164496	      0.82469678	     12.61953546	     -7.81336638	      0.00000000	      0.00000000	     98.40321719	     -7.05210003	     -2.30973181	    103.91383982	      1.81363864	     20.21022821	     -0.21572634	      0.00000000	      0.00000000	    -40.53143100	     -1.98516295	    -10.41781514	     80.74806872	     -0.20637350	     39.34446081	     29.29330595	     43.33473135	      0.00000000	      0.00000000	     77.53977246	    -22.29466583	     42.54225538	     39.83375823	     49.45378088	      0.00000000	      0.00000000
      0.04000000	    -24.20406769	      5.93416869	      0.86610167	      0.13774686	      1.10156560	     -0.26902726	      0.00000000	      0.50000000	      0.00000000	      0.25000000	     49.26795905	     -7.82420517	      3.54867211	     47.26467522	      0.82492420	     12.61792787	     -7.81177943	      0.00000000	      0.00000000	     98.38897600	     -7.04570238	     -2.32094299	    103.91514623	      1.81366144	     20.20942072	     -0.22090622	      0.00000000	      0.00000000	    -40.55162511	     -1.98848977	    -10.46269420	     80.78390013	     -0.13157292	     39.29107714	     29.17997989	     43.17963282	      0.00000000	      0.00000000	     77.51584962	    -22.31206103	     42.48778946	     39.91980536	     48.96143117	      0.00000000	      0.00000000
      0.04500000	    -24.21099023	      5.94032838	      0.85716650	      0.13773441	      1.10155055	     -0.26900716	      0.00000000	      0.50000000	      0.00000000	      0.25000000	     49.28147736	     -7.81340980	      3.57050890	     47.27156992	      0.82504454	     12.61525072	     -7.84296606	      0.00000000	      0.00000000	     98.39042330	     -7.06650076	     -2.33140653	    103.90550062	      1.81349310	     20.20698485	     -0.20582281	      0.00000000	      0.00000000	    -40.54540606	     -1.99857540	    -10.44926657	     80.79556440	     -0.15010061	     39.41199099	     29.19821432	     43.05601904	      0.00000000	      0.00000000	     77.53159463	    -22.37816791	     42.65177091	     40.02145561	     48.65139067	      0.00000000	      0.00000000
      0.05000000	    -24.20610262	      5.84155074	      0.82256989	      0.13778245	      1.10148604	     -0.26893455	      0.00000000	      0.50000000	      0.00000000	      0.25000000	     49.25355303	     -7.69735716	      3.53976743	     47.25477603	      0.82475143	     12.65998683	     -7.84470846	      0.00000000	      0.00000000	     98.41466359	     -7.13881492	     -2.21241719	    103.95189329	      1.81430280	     20.37769377	      0.19078662	      0.00000000	      0.00000000	    -40.57040267	     -1.91000795	    -10.36411572	     80.64680952	     -0.13401983	     38.85320710	     29.79090732	     42.92289937	      0.00000000	      0.00000000	     77.25574951	    -22.37088810	     42.00073024	     40.53124258	     48.30546336	      0.00000000	      0.00000000
